<svg xmlns="http://www.w3.org/2000/svg" viewBox="0 0 414.55 412.56"><defs><style>.cls-1{fill:#1d1d1b;}.cls-2{fill:#010101;}</style></defs><g id="Camada_2" data-name="Camada 2"><g id="Camada_1-2" data-name="Camada 1"><path class="cls-1" d="M207.36,410.85C-203.58,297.38,204,88,136.12,1.5l-19.71.21c67.83,86.49-339.7,295.88,71.24,409.35Z"/><path class="cls-2" d="M207.76,409.4C173,399.77,138.28,388.26,106,371.81c-21.38-10.91-42.25-24.2-58.42-42.16-11.52-12.78-20.13-28.09-23.41-45.08-3-15.56-1.35-31.6,2.89-46.76,4.66-16.65,12.23-32.35,20.8-47.31,9.23-16.09,19.74-31.42,30.54-46.49C89,129.27,99.9,114.77,110.33,99.94c9.06-12.87,17.94-26,25-40.14,5.43-10.91,10.15-23,10.13-35.34A39.06,39.06,0,0,0,142.29,8.9,36.68,36.68,0,0,0,138.35,2c-1-1.34-1.59-2-3.24-2l-6.63.07L116.41.21a1.52,1.52,0,0,0-1.06,2.56c6.62,8.48,8.44,19.06,6.77,29.51-2.06,12.93-8.07,25-14.53,36.28C99.32,83,89.67,96.52,80,110c-10.8,14.93-21.85,29.7-32.34,44.85s-20.39,30.46-28.73,46.76C11.16,216.63,4.69,232.61,1.7,249.34c-2.79,15.64-2.33,31.82,2.7,47,5.78,17.43,17,32.44,30.41,44.79,19.31,17.78,42.76,30.76,66.58,41.43a517,517,0,0,0,48.94,18.81q14.4,4.79,29,8.94c3,.85,6.2,2.3,9.33,2.27l6.64-.07,12.06-.13c1.93,0,1.94-3,0-3l-12.46.13c-2.19,0-4.4.15-6.59.07a10.3,10.3,0,0,1-2.44-.54c-2.62-.73-5.25-1.48-7.86-2.24-18.43-5.33-36.7-11.3-54.58-18.26-26.54-10.34-52.89-22.85-75.55-40.32-15.3-11.8-29-26.3-37.17-44a88.62,88.62,0,0,1-7.24-46.06c1.67-16.37,7.15-32.22,14.08-47.06,7.68-16.43,17.22-31.94,27.33-47,10.33-15.35,21.33-30.22,32.24-45.16,10-13.72,20-27.49,28.95-42,7.2-11.68,14-24.09,17.56-37.44,2.82-10.61,3.15-22-1.81-32.06A39.14,39.14,0,0,0,117.47.65l-1.06,2.56L136.12,3l-1.06-.44c6.34,8.13,8.29,18.15,6.95,28.26-1.6,12.14-7,23.72-12.93,34.36-7.55,13.65-16.48,26.51-25.55,39.18-10.18,14.23-20.68,28.23-30.8,42.5a507.7,507.7,0,0,0-28.83,44.6C35.79,205.88,28.66,221,24.2,237c-4.12,14.74-5.79,30.2-3.41,45.39,2.54,16.19,9.85,31.11,20,43.87,13.6,17.05,31.7,30.18,50.48,41,27.57,15.84,57.61,27.28,87.85,36.84Q193,408.45,207,412.29A1.5,1.5,0,0,0,207.76,409.4Z"/><path class="cls-1" d="M171.47,402.14c180.15-145.3-182.17-238.23,67.62-379C-22,134.43,242.57,349.27,171.47,402.14Z"/><path class="cls-2" d="M172.53,403.2C187.15,391.4,200.87,378,210.94,362a91.41,91.41,0,0,0,14-39c1.3-12.48-.45-25.09-4.09-37.05-3.79-12.44-9.49-24.24-15.81-35.57-6.6-11.83-13.94-23.23-21.17-34.69-7.12-11.29-14.2-22.66-20.26-34.58-5.61-11-10.36-22.61-12.74-34.79a75.66,75.66,0,0,1,1.29-35.52c4-13.94,12.14-26.33,21.79-37,14-15.59,31.24-28.18,49-39.27q8.33-5.22,16.9-10c1.73-1,.21-3.32-1.52-2.59-22,9.4-43.35,20.7-62.32,35.36C161.61,68.36,148.64,81.52,138.88,97A122.31,122.31,0,0,0,122,139.55a148.75,148.75,0,0,0-1.3,44.13A241.76,241.76,0,0,0,130.35,228c4.49,14.55,10,28.78,15.82,42.83,5.56,13.35,11.47,26.54,17.18,39.83,5,11.63,9.9,23.35,13.75,35.43,3,9.43,5.58,19.33,5.48,29.3-.08,7.87-2.19,15.65-7.54,21.53a32.14,32.14,0,0,1-4.32,3.93c-1.53,1.14,0,3.75,1.51,2.59a32.27,32.27,0,0,0,12.63-20.26c1.68-9.25.23-18.84-2-27.88-2.85-11.53-7.15-22.69-11.65-33.67-5.31-12.94-11-25.71-16.6-38.56-6-13.85-11.75-27.79-16.76-42a290.34,290.34,0,0,1-12.11-44,165.61,165.61,0,0,1-2.52-44.16,121.17,121.17,0,0,1,11.92-43.2c7.64-15.44,18.57-29,31.27-40.55,16.5-15,35.77-26.83,55.75-36.63,5.83-2.86,11.73-5.54,17.7-8.09l-1.52-2.59C218.2,33.23,198.51,46,181.55,61.81c-11.55,10.79-22,23.3-28.46,37.86a77.13,77.13,0,0,0-6.53,36.48c.85,12.29,4.46,24.16,9.3,35.43,5.18,12.06,11.76,23.46,18.61,34.63,7.12,11.61,14.6,23,21.62,34.67,6.79,11.29,13.25,22.89,18.13,35.15,4.61,11.57,7.84,23.79,8.17,36.29A82.28,82.28,0,0,1,214,350.26c-7.51,15.54-19,28.84-31.6,40.48-3.89,3.58-7.91,7-12,10.34C168.91,402.3,171,404.41,172.53,403.2Z"/><path class="cls-1" d="M213.07,67.85C286.65,172.72,293.72,306,216.33,411c129-62.06,101.89-274.91.92-343.38Z"/><path class="cls-2" d="M211.77,68.61a332.79,332.79,0,0,1,35.3,64.1,305.43,305.43,0,0,1,19.2,67.64,282.5,282.5,0,0,1,2.55,69.47,272.27,272.27,0,0,1-15,68.11,282.13,282.13,0,0,1-33.43,64.76c-1.75,2.54-3.55,5-5.37,7.52-1,1.33.85,2.64,2.05,2.06a143.88,143.88,0,0,0,59.57-53,168.89,168.89,0,0,0,17-35.65,203,203,0,0,0,9.14-39.4,237.36,237.36,0,0,0,1.77-41.37A265.76,265.76,0,0,0,287.9,161.1a241.16,241.16,0,0,0-17.56-37,201.83,201.83,0,0,0-22.93-31.78,159.54,159.54,0,0,0-27.88-25,4.51,4.51,0,0,0-3.13-1.2l-3.33.21c-1.92.12-1.93,3.13,0,3l3.33-.21c.21,0,.43,0,.65,0s-.36-.33,0,.16A9.14,9.14,0,0,0,219,70.61q3.65,2.6,7.12,5.41a155,155,0,0,1,13.58,12.42,187.42,187.42,0,0,1,23.67,30,229.23,229.23,0,0,1,18.37,35.18,259.07,259.07,0,0,1,12.74,39A261,261,0,0,1,301,233.25a243.09,243.09,0,0,1-.07,40.83,207.72,207.72,0,0,1-7.16,39.26A172.61,172.61,0,0,1,279,349.51a147.16,147.16,0,0,1-22.83,31A140.2,140.2,0,0,1,224.56,405q-4.41,2.5-9,4.71l2,2.05a288.6,288.6,0,0,0,35.93-64.61,275.45,275.45,0,0,0,17.35-68.59,281.17,281.17,0,0,0-.43-69.87,303.61,303.61,0,0,0-17.4-68.87,331,331,0,0,0-33.43-64.94q-2.6-3.91-5.29-7.75C213.26,65.53,210.66,67,211.77,68.61Z"/><path class="cls-1" d="M207.16,410.85C618.1,297.38,210.57,88,278.4,1.5l19.71.21c-67.83,86.49,339.7,295.88-71.24,409.35Z"/><path class="cls-2" d="M207.56,412.29c33.59-9.29,67-20.37,98.29-35.81,21.27-10.49,42.06-23.19,58.86-40.13,12-12.14,21.8-26.69,26.62-43.2,4.29-14.67,4.39-30.16,1.58-45.12-3-15.93-9.12-31.17-16.41-45.58-7.92-15.65-17.36-30.48-27.26-44.92-10-14.6-20.57-28.81-31-43.12-9.56-13.14-19.09-26.34-27.56-40.22C283.86,63,277.41,51.17,274,38.41c-2.59-9.83-3-20.43,1.54-29.65a35.81,35.81,0,0,1,3.88-6.2L278.4,3l19.71.21L297.05.65c-6.86,8.78-9.24,19.51-7.82,30.48,1.67,13,7.41,25.16,13.7,36.46,8,14.29,17.42,27.73,27,41C340.57,123.41,351.52,138,362,153s20.6,30.35,29.19,46.53c7.93,14.94,14.65,30.72,18.1,47.34,3.18,15.39,3.19,31.41-1.38,46.53-5.26,17.35-16.14,32.29-29.24,44.6-18.83,17.69-41.9,30.56-65.29,41.18A504.34,504.34,0,0,1,264.67,398q-14.33,4.79-28.86,9c-2.62.75-5.28,1.43-7.89,2.23a5.68,5.68,0,0,1-2.06.34l-6.64-.07-12.06-.13c-1.93,0-1.93,3,0,3l12.65.13c2.13,0,4.27.1,6.4.07a7.28,7.28,0,0,0,1.78-.25c2.78-.68,5.52-1.54,8.26-2.33,18.6-5.35,37-11.35,55.07-18.35,26.63-10.33,53-22.75,75.87-40.1,15.6-11.85,29.77-26.32,38.4-44.11a90.83,90.83,0,0,0,8.69-46.69c-1.26-16.54-6.37-32.51-13.09-47.59-7.38-16.58-16.78-32.21-26.8-47.32-10.24-15.44-21.23-30.37-32.16-45.33-10.12-13.85-20.29-27.71-29.45-42.23-7.45-11.83-14.6-24.3-18.52-37.8-3-10.23-3.81-21.42.87-31.15a36,36,0,0,1,4-6.53A1.52,1.52,0,0,0,298.11.21L285.65.07c-2.2,0-4.4-.08-6.59-.07-1.57,0-2.19,1-3.05,2.21a36.82,36.82,0,0,0-6.2,14.51c-2.18,11.56.9,23.42,5.31,34.08,5.74,13.9,13.8,26.75,22.19,39.18,9.9,14.67,20.5,28.85,30.92,43.15,10.92,15,21.73,30.14,31.53,45.91,9.34,15,17.9,30.67,24,47.32,5.5,15.09,8.93,31.11,8,47.24a88.51,88.51,0,0,1-16.37,45.56C362.7,337.09,344.8,350.84,326.16,362c-28.11,16.89-59.09,28.8-90.26,38.72q-14.47,4.62-29.14,8.64A1.5,1.5,0,0,0,207.56,412.29Z"/></g></g></svg>