<?xml version="1.0" encoding="utf-8"?>
<!-- Generator: Adobe Illustrator 25.4.1, SVG Export Plug-In . SVG Version: 6.00 Build 0)  -->
<svg version="1.1" id="idea-bulb" xmlns="http://www.w3.org/2000/svg" xmlns:xlink="http://www.w3.org/1999/xlink" x="0px" y="0px"
	 viewBox="0 0 935.1 1010" style="enable-background:new 0 0 935.1 1010;" xml:space="preserve">
<style type="text/css">
	.st0{fill:url(#SVGID_1_);}
	.st1{fill:#022531;}
	.st2{fill:url(#SVGID_00000026127141574090571210000010772246309784221869_);}
	.st3{fill:#FCFC03;}
	.st4{fill:#FFFFFF;}
</style>
<g id="idea-bulb-idea-bulb">
	<g>
		
			<linearGradient id="SVGID_1_" gradientUnits="userSpaceOnUse" x1="349.9" y1="77.95" x2="582.6" y2="77.95" gradientTransform="matrix(1 0 0 -1 0 1012)">
			<stop  offset="0" style="stop-color:#FFFFFF"/>
			<stop  offset="1" style="stop-color:#000000"/>
		</linearGradient>
		<path class="st0" d="M582.6,878.3c0,67-47.2,111.5-114.2,111.5s-118.5-44.5-118.5-111.5"/>
		<path class="st1" d="M468.4,1010c-80.4,0-138.7-55.4-138.7-131.7c0-11.2,9.1-20.2,20.2-20.2c11.2,0,20.2,9,20.2,20.2
			c0,53.8,40.4,91.3,98.3,91.3c56.2,0,94-36.7,94-91.3c0-11.2,9-20.2,20.2-20.2c11.1,0,20.2,9,20.2,20.2
			C602.8,955.9,547.5,1010,468.4,1010L468.4,1010z"/>
	</g>
	<g>
		
			<linearGradient id="SVGID_00000024681152699130825970000007223154165726445997_" gradientUnits="userSpaceOnUse" x1="349.9" y1="240.35" x2="582.6" y2="240.35" gradientTransform="matrix(1 0 0 -1 0 1012)">
			<stop  offset="0" style="stop-color:#FFFFFF"/>
			<stop  offset="1" style="stop-color:#000000"/>
		</linearGradient>
		<polyline style="fill:url(#SVGID_00000024681152699130825970000007223154165726445997_);" points="582.6,665 582.6,878.3 
			349.9,878.3 349.9,665 		"/>
		<path class="st1" d="M582.6,898.5H349.9c-11.1,0-20.2-9-20.2-20.2V665c0-11.2,9.1-20.2,20.2-20.2c11.2,0,20.2,9,20.2,20.2v193.1
			h192.3V665c0-11.2,9-20.2,20.2-20.2c11.1,0,20.2,9,20.2,20.2v213.3C602.8,889.5,593.7,898.5,582.6,898.5L582.6,898.5z"/>
	</g>
	<g>
		<path class="st3" d="M233.1,88.9c-5.2,0-10.3-2-14.3-5.9l-48.5-48.5c-7.9-7.9-7.9-20.7,0-28.6s20.7-7.9,28.6,0l48.5,48.5
			c7.9,7.9,7.9,20.7,0,28.6C243.4,86.9,238.2,88.9,233.1,88.9L233.1,88.9z"/>
	</g>
	<g>
		<path class="st3" d="M717.9,88.9c-5.2,0-10.3-2-14.3-5.9c-7.9-7.9-7.9-20.7,0-28.6l48.5-48.5c7.9-7.9,20.7-7.9,28.6,0
			c7.9,7.9,7.9,20.7,0,28.6L732.2,83C728.2,86.9,723,88.9,717.9,88.9L717.9,88.9z"/>
	</g>
	<g>
		<path class="st3" d="M184.6,670.6c-5.2,0-10.3-2-14.3-5.9c-7.9-7.9-7.9-20.7,0-28.6l48.5-48.5c7.9-7.9,20.7-7.9,28.6,0
			c7.9,7.9,7.9,20.7,0,28.6l-48.5,48.5C194.9,668.7,189.7,670.6,184.6,670.6L184.6,670.6z"/>
	</g>
	<g>
		<path class="st3" d="M766.4,670.6c-5.2,0-10.3-2-14.3-5.9l-48.5-48.5c-7.9-7.9-7.9-20.7,0-28.6c7.9-7.9,20.7-7.9,28.6,0l48.5,48.5
			c7.9,7.9,7.9,20.7,0,28.6C776.7,668.7,771.5,670.6,766.4,670.6L766.4,670.6z"/>
	</g>
	<g>
		<path class="st3" d="M97.8,355.5H20.2c-11.1,0-20.2-9-20.2-20.2s9.1-20.2,20.2-20.2h77.6c11.1,0,20.2,9,20.2,20.2
			S108.9,355.5,97.8,355.5L97.8,355.5z"/>
	</g>
	<g>
		<path class="st3" d="M914.9,355.5h-77.6c-11.2,0-20.2-9-20.2-20.2s9-20.2,20.2-20.2h77.6c11.1,0,20.2,9,20.2,20.2
			C935.1,346.5,926.1,355.5,914.9,355.5L914.9,355.5z"/>
	</g>
	<g>
		<path class="st3" d="M681.1,129.7c-113.6-113.6-297.7-113.6-411.3,0C156.2,243.2,154,427.4,267.6,541
			c25.1,25.1,43.5,43.8,82.3,57.7v85.7h232.7v-85.7c38.8-14,66.4-32.7,91.5-57.7C787.7,427.4,794.7,243.2,681.1,129.7z"/>
		<path class="st1" d="M582.6,704.6H349.9c-11.1,0-20.2-9-20.2-20.2v-71.9c-33.9-14.8-53.3-34.1-75.4-56.2
			c-59.7-59.7-91.6-137.8-91-221.1c0.6-82.9,33.4-161,92.2-219.8c58.8-58.7,136.9-91.1,220-91.1s161.2,32.4,219.9,91.1
			c58.5,58.4,89.6,136.7,87.6,220.4c-2,82.5-35.6,160.4-94.6,219.5c-25.6,25.6-52.5,43.6-85.6,57.3v71.8
			C602.8,695.6,593.7,704.6,582.6,704.6L582.6,704.6z M370.1,664.2h192.3v-65.5c0-8.5,5.3-16.1,13.3-19c33.6-12.1,59.5-28.5,84.1-53
			c51.7-51.7,81.1-119.8,82.8-191.9c1.7-72.5-25.2-140.3-75.8-190.9c-51.1-51.1-119.1-79.3-191.4-79.3S335.1,92.7,284,143.9
			c-51.3,51.3-79.9,119.3-80.4,191.5c-0.5,72.4,27.2,140.3,78.2,191.3c25,24.9,40.8,40.8,74.8,53c8,2.9,13.3,10.5,13.3,19v65.5
			H370.1z"/>
	</g>
	<g>
		<path class="st4" d="M338.3,492.6c-5.2,0-10.3-2-14.3-5.9c-40.5-40.5-62.7-94.2-62.7-151.4c0-57.1,22.3-110.9,62.7-151.4
			c7.9-7.9,20.7-7.9,28.6,0s7.9,20.7,0,28.6c-32.8,32.8-50.9,76.5-50.9,122.8c0,46.4,18.1,90,50.9,122.8c7.9,7.9,7.9,20.7,0,28.6
			C348.7,490.7,343.5,492.6,338.3,492.6L338.3,492.6z"/>
	</g>
	<g>
		<path class="st1" d="M565.7,836.4H366.8c-11.2,0-20.2-9-20.2-20.2s9-20.2,20.2-20.2h198.9c11.1,0,20.2,9,20.2,20.2
			C585.9,827.4,576.8,836.4,565.7,836.4L565.7,836.4z"/>
	</g>
	<g>
		<path class="st1" d="M565.7,769.6H366.8c-11.2,0-20.2-9-20.2-20.2s9-20.2,20.2-20.2h198.9c11.1,0,20.2,9,20.2,20.2
			C585.9,760.5,576.8,769.6,565.7,769.6L565.7,769.6z"/>
	</g>
</g>
</svg>
