<?xml version="1.0" encoding="utf-8"?>
<!-- Generator: Adobe Illustrator 25.4.1, SVG Export Plug-In . SVG Version: 6.00 Build 0)  -->
<svg version="1.1" id="Capa_1" xmlns="http://www.w3.org/2000/svg" xmlns:xlink="http://www.w3.org/1999/xlink" x="0px" y="0px"
	 viewBox="0 0 511 511" style="enable-background:new 0 0 511 511;" xml:space="preserve">
<style type="text/css">
	.st0{fill:#FFFFFF;}
</style>
<g>
	<g>
		<path class="st0" d="M503.5,199.3c4.1,0,7.5-3.4,7.5-7.5V7.5c0-4.1-3.4-7.5-7.5-7.5h-384c-4.1,0-7.5,3.4-7.5,7.5V320H71.5
			C49.7,320,32,337.7,32,359.5V432H7.5c-4.1,0-7.5,3.4-7.5,7.5v32C0,493.3,17.7,511,39.5,511h272c21.8,0,39.5-17.7,39.5-39.5V439
			h104.5c30.6,0,55.5-24.9,55.5-55.5V227.8c0-4.1-3.4-7.5-7.5-7.5s-7.5,3.4-7.5,7.5v155.7c0,22.3-18.2,40.5-40.5,40.5
			S415,405.8,415,383.5v-24c0-21.8-17.7-39.5-39.5-39.5H127V15h369v176.8C496,196,499.4,199.3,503.5,199.3z M39.5,496
			C26,496,15,485,15,471.5V447h257v24.5c0,9.2,3.2,17.8,8.5,24.5H39.5z M400,359.5v24c0,16,6.8,30.4,17.6,40.5H351v-64.5
			c0-13.5,11-24.5,24.5-24.5S400,346,400,359.5z M336.6,352.7c-0.4,2.2-0.6,4.5-0.6,6.8v112c0,13.5-11,24.5-24.5,24.5
			S287,485,287,471.5v-32c0-4.1-3.4-7.5-7.5-7.5H47v-72.5C47,346,58,335,71.5,335h273C340.5,340.1,337.7,346.1,336.6,352.7z"/>
		<path class="st0" d="M103.5,375h176c4.1,0,7.5-3.4,7.5-7.5s-3.4-7.5-7.5-7.5h-176c-4.1,0-7.5,3.4-7.5,7.5S99.4,375,103.5,375z"/>
		<path class="st0" d="M103.5,415h48c4.1,0,7.5-3.4,7.5-7.5s-3.4-7.5-7.5-7.5h-48c-4.1,0-7.5,3.4-7.5,7.5S99.4,415,103.5,415z"/>
		<path class="st0" d="M279.5,400h-96c-4.1,0-7.5,3.4-7.5,7.5s3.4,7.5,7.5,7.5h96c4.1,0,7.5-3.4,7.5-7.5S283.6,400,279.5,400z"/>
		<path class="st0" d="M370.2,110.9c-0.1-1.4-0.6-2.8-1.5-3.9l-48-64c-3-3.9-9-3.9-12,0l-48,64c-1,1.3-1.5,2.9-1.5,4.5v51.2
			c-8.1,3.9-15.4,9.1-21.8,15.5c-7.6,7.6-13.5,16.5-17.6,26.4c-2,4.9,1.7,10.4,6.9,10.4h176c5.2,0,8.9-5.5,6.9-10.4
			c-4.1-9.9-10-18.8-17.6-26.4c-6.4-6.4-13.7-11.6-21.8-15.5v-51.2C370.2,111.3,370.2,111.1,370.2,110.9z M314.7,60l33,44h-66
			L314.7,60z M248,188.8c3.4-3.4,7.2-6.4,11.2-9V200H239C241.6,196,244.6,192.2,248,188.8z M274.2,167.5V119h81v48.5V200h-81V167.5z
			 M381.4,188.8c3.4,3.4,6.4,7.2,9,11.2h-20.2v-20.2C374.2,182.4,378,185.4,381.4,188.8z"/>
		<path class="st0" d="M314.7,136c-13,0-23.5,10.5-23.5,23.5s10.5,23.5,23.5,23.5s23.5-10.5,23.5-23.5S327.7,136,314.7,136z
			 M314.7,168c-4.7,0-8.5-3.8-8.5-8.5s3.8-8.5,8.5-8.5s8.5,3.8,8.5,8.5S319.4,168,314.7,168z"/>
		<path class="st0" d="M327,247.5c0-4.1-3.4-7.5-7.5-7.5h-120c-4.1,0-7.5,3.4-7.5,7.5s3.4,7.5,7.5,7.5h120
			C323.6,255,327,251.6,327,247.5z"/>
		<path class="st0" d="M199.5,280c-4.1,0-7.5,3.4-7.5,7.5s3.4,7.5,7.5,7.5h56c4.1,0,7.5-3.4,7.5-7.5s-3.4-7.5-7.5-7.5H199.5z"/>
		<path class="st0" d="M287.5,295h136c4.1,0,7.5-3.4,7.5-7.5s-3.4-7.5-7.5-7.5h-136c-4.1,0-7.5,3.4-7.5,7.5S283.4,295,287.5,295z"/>
		<path class="st0" d="M344,247.5c0,4.1,3.4,7.5,7.5,7.5h64c4.1,0,7.5-3.4,7.5-7.5s-3.4-7.5-7.5-7.5h-64
			C347.4,240,344,243.4,344,247.5z"/>
		<path class="st0" d="M205.3,152.4h-7.8c-4.5,0-8.1-3.6-8.1-8.1c0-4.1-3.4-7.5-7.5-7.5s-7.5,3.4-7.5,7.5c0,12,9.1,21.8,20.8,23v8.2
			c0,4.1,3.4,7.5,7.5,7.5s7.5-3.4,7.5-7.5v-8.6c11.8-2.3,20.8-12.7,20.8-25.2c0-14.2-11.5-25.7-25.7-25.7h-5.2
			c-5.9,0-10.7-4.8-10.7-10.7s4.8-10.7,10.7-10.7h7.8c4.5,0,8.1,3.6,8.1,8.1v5.2c0,4.1,3.4,7.5,7.5,7.5s7.5-3.4,7.5-7.5v-5.2
			c0-12-9.1-21.8-20.8-23v-8.2c0-4.1-3.4-7.5-7.5-7.5s-7.5,3.4-7.5,7.5v8.6c-11.8,2.3-20.8,12.7-20.8,25.2
			c0,14.2,11.5,25.7,25.7,25.7h5.2c5.9,0,10.7,4.8,10.7,10.7S211.2,152.4,205.3,152.4z"/>
		<path class="st0" d="M447.5,115.4c4.1,0,7.5-3.4,7.5-7.5v-5.2c0-12-9.1-21.8-20.8-23v-8.2c0-4.1-3.4-7.5-7.5-7.5s-7.5,3.4-7.5,7.5
			v8.6c-11.8,2.3-20.8,12.7-20.8,25.2c0,14.2,11.5,25.7,25.7,25.7h5.2c5.9,0,10.7,4.8,10.7,10.7s-4.8,10.7-10.7,10.7h-7.8
			c-4.5,0-8.1-3.6-8.1-8.1c0-4.1-3.4-7.5-7.5-7.5s-7.5,3.4-7.5,7.5c0,12,9.1,21.8,20.8,23v8.2c0,4.1,3.4,7.5,7.5,7.5
			s7.5-3.4,7.5-7.5v-8.6c11.8-2.3,20.8-12.7,20.8-25.2c0-14.2-11.5-25.7-25.7-25.7h-5.2c-5.9,0-10.7-4.8-10.7-10.7
			s4.8-10.7,10.7-10.7h7.8c4.5,0,8.1,3.6,8.1,8.1v5.2C440,112,443.4,115.4,447.5,115.4z"/>
	</g>
</g>
</svg>
