<?xml version="1.0" encoding="utf-8"?>
<!-- Generator: Adobe Illustrator 25.4.1, SVG Export Plug-In . SVG Version: 6.00 Build 0)  -->
<svg version="1.1" id="Camada_1" xmlns="http://www.w3.org/2000/svg" xmlns:xlink="http://www.w3.org/1999/xlink" x="0px" y="0px"
	 viewBox="0 0 505 505" style="enable-background:new 0 0 505 505;" xml:space="preserve">
<style type="text/css">
	.st0{fill:#FFFFFF;}
</style>
<g id="Layer_1">
	<g>
		<path class="st0" d="M315.5,75c49.3-0.9,49.3-74.1,0-75C266.2,0.9,266.2,74.1,315.5,75z M315.5,15c29.6,0.5,29.6,44.5,0,45
			C285.9,59.5,285.9,15.5,315.5,15z"/>
		<path class="st0" d="M84.5,338c-88.7,1.6-88.7,133.4,0,135C173.2,471.4,173.2,339.6,84.5,338z M84.5,458c-69-1.2-69-103.8,0-105
			C153.5,354.2,153.5,456.8,84.5,458z"/>
		<path class="st0" d="M342.5,410c-62.4,1.1-62.4,93.9,0,95C404.9,503.9,404.9,411.1,342.5,410z M342.5,490
			c-42.7-0.8-42.7-64.2,0-65C385.2,425.8,385.2,489.2,342.5,490z"/>
		<path class="st0" d="M462.5,288c-49.3,0.9-49.3,74.1,0,75C511.8,362.1,511.8,288.9,462.5,288z M462.5,348
			c-29.6-0.5-29.6-44.5,0-45C492.1,303.5,492.1,347.5,462.5,348z"/>
		<path class="st0" d="M148.5,99c62.4-1.1,62.4-93.9,0-95C86.1,5.1,86.1,97.9,148.5,99z M148.5,19c42.7,0.8,42.7,64.2,0,65
			C105.8,83.2,105.8,19.8,148.5,19z"/>
		<path class="st0" d="M80,165.5c-0.9-49.3-74.1-49.3-75,0C5.9,214.8,79.1,214.8,80,165.5z M20,165.5c0.5-29.6,44.5-29.6,45,0
			C64.5,195.1,20.5,195.1,20,165.5z"/>
		<path class="st0" d="M392.2,416.7L402,428c16.4-14.3,30.7-30.8,42.6-49l-12.6-8.2C420.9,387.9,407.5,403.3,392.2,416.7z"/>
		<path class="st0" d="M249.5,470c-32.6,0-64-7.1-93.3-21l-6.4,13.5C190.4,482,236.3,489,281,482.9l-2-14.9
			C269.2,469.3,259.3,470,249.5,470z"/>
		<path class="st0" d="M19.7,217.2c-6.1,39.9-1.7,81.5,12.8,119l14-5.4c-13.6-35.1-17.7-74-12-111.3L19.7,217.2z"/>
		<path class="st0" d="M100.4,94.2L90.1,83.3c-9.7,9.2-18.7,19.2-26.7,29.8l12,9C82.9,112.1,91.3,102.7,100.4,94.2z"/>
		<path class="st0" d="M249.5,35c3.8,0,7.6,0.1,11.5,0.3l0.8-15c-17.7-0.9-35.5,0.2-52.9,3.2l2.6,14.8C223.9,36.1,236.7,35,249.5,35
			z"/>
		<path class="st0" d="M429.6,130.6l12.4-8.4c-18.8-27.7-43.8-51.5-72.4-68.7l-7.8,12.8C388.6,82.4,412.1,104.7,429.6,130.6z"/>
		<path class="st0" d="M481.2,272.3c1.3-14.8,1.1-29.3-0.4-44.1l-14.9,1.5c1.4,13.8,1.6,27.4,0.4,41.3L481.2,272.3z"/>
		<path class="st0" d="M423,175.5c0.9,49.3,74.1,49.3,75,0C497.1,126.2,423.9,126.2,423,175.5z M460.5,153c29.6,0.5,29.6,44.5,0,45
			C430.9,197.5,430.9,153.5,460.5,153z"/>
		
			<rect x="216.5" y="373.4" transform="matrix(0.1946 -0.9809 0.9809 0.1946 -241.4779 566.053)" class="st0" width="15" height="113.3"/>
		<path class="st0" d="M357,252l55.9,47.3l9.7-11.4l-52.2-44.3l48.8-30.7l-8-12.7l-52.9,33.2l-22-18.7l-8-123l-15,1l7,108.5
			L259,149.3l37.4-59.1l-12.7-8l-36.2,57.3l-52.2-44.2l-9.7,11.4l53.8,45.6L190.9,229l-61.1-22.3l15.2-90l-14.8-2.5l-14.7,87.2
			l-26.7-9.8l-5.1,14.1l29.3,10.7L95.3,321.2l14.8,2.5l17.2-101.9l55.4,20.2l-56.5,89.3l12.7,8l58.3-92.1l87.9,32.1l-128.9,80.9
			l8,12.7L303,285.8l23.5,8.6l6.4,98.5l15-1l-6-91.8l63.8,23.4l5.2-14.1l-70-25.7l-1.4-20.8L357,252z M345,241.8l-6.7,4.2l-0.7-10.4
			L345,241.8z M205.3,234.3l45.7-72.2l70.7,59.9l2.1,33l-22.7,14.3L205.3,234.3z M325.4,278.2l-6.4-2.4l6-3.8L325.4,278.2z"/>
	</g>
</g>
</svg>
