<?xml version="1.0" encoding="utf-8"?>
<!-- Generator: Adobe Illustrator 25.4.1, SVG Export Plug-In . SVG Version: 6.00 Build 0)  -->
<svg version="1.1" id="network" xmlns="http://www.w3.org/2000/svg" xmlns:xlink="http://www.w3.org/1999/xlink" x="0px" y="0px"
	 viewBox="0 0 951.1 1010" style="enable-background:new 0 0 951.1 1010;" xml:space="preserve">
<style type="text/css">
	.st0{fill:#038DC2;}
	.st1{fill:#ECF0F1;}
	.st2{fill:#FFCA70;}
	.st3{fill:#022531;}
</style>
<g id="network-network">
	<g>
		<circle class="st0" cx="475.5" cy="538.4" r="471.6"/>
	</g>
	<g>
		<g>
			<path class="st1" d="M522.7,192.6l110,62.9c0,0,0,5.4,0,31.5c0,26-15.7,47.1-31.4,47.1H349.8c-15.7,0-31.4-21.1-31.4-47.1
				s0-31.5,0-31.5l110-62.9"/>
		</g>
		<g>
			<path class="st2" d="M554.1,106.1c0,55-30.9,102.2-78.6,102.2s-78.6-47.2-78.6-102.2s15.7-86.5,78.6-86.5S554.1,51.1,554.1,106.1
				z"/>
		</g>
		<g>
			<path class="st3" d="M475.5,227.9c-56,0-98.2-52.4-98.2-121.8C377.3,56.7,388.4,0,475.5,0s98.2,56.7,98.2,106.1
				C573.8,175.6,531.5,227.9,475.5,227.9L475.5,227.9z M475.5,39.3c-45.7,0-58.9,15-58.9,66.8c0,40,20.7,82.5,58.9,82.5
				s58.9-42.5,58.9-82.5C534.5,54.3,521.3,39.3,475.5,39.3L475.5,39.3z"/>
		</g>
		<g>
			<path class="st3" d="M601.3,353.7H349.8c-27.7,0-51.1-30.6-51.1-66.8V244l119.9-68.5l19.5,34.1L338,266.9v20
				c0,16.1,8.6,26.7,12.1,27.5h251.3c3.2-0.8,11.8-11.4,11.8-27.5v-20l-100.1-57.2l19.5-34.1L652.4,244v42.9
				C652.4,323.1,629,353.7,601.3,353.7L601.3,353.7z"/>
		</g>
	</g>
	<g>
		<g>
			<path class="st1" d="M224,727l110,62.9c0,0,0,5.4,0,31.4c0,26.1-15.7,47.2-31.4,47.2H51.1c-15.7,0-31.5-21.1-31.5-47.2
				c0-26,0-31.4,0-31.4l110-62.9"/>
		</g>
		<g>
			<path class="st2" d="M255.4,640.6c0,55-30.9,102.2-78.6,102.2s-78.6-47.1-78.6-102.2c0-55,15.7-86.5,78.6-86.5
				S255.4,585.6,255.4,640.6z"/>
		</g>
		<g>
			<path class="st3" d="M176.8,762.4c-56,0-98.2-52.4-98.2-121.8c0-49.4,11.2-106.1,98.2-106.1c87.1,0,98.2,56.7,98.2,106.1
				C275.1,710,232.9,762.4,176.8,762.4L176.8,762.4z M176.8,573.8c-45.7,0-58.9,15-58.9,66.8c0,40,20.7,82.5,58.9,82.5
				s58.9-42.5,58.9-82.5C235.8,588.8,222.6,573.8,176.8,573.8L176.8,573.8z"/>
		</g>
		<g>
			<path class="st3" d="M302.6,888.2H51.1C23.4,888.2,0,857.6,0,821.4v-42.8L120,710l19.5,34.1L39.3,801.3v20
				c0,16.1,8.6,26.8,12.1,27.5h251.3c3.2-0.8,11.8-11.4,11.8-27.5v-20l-100.1-57.2l19.5-34.1l119.9,68.5v42.8
				C353.7,857.6,330.3,888.2,302.6,888.2L302.6,888.2z"/>
		</g>
	</g>
	<g>
		<g>
			<path class="st1" d="M821.4,727l110,62.9c0,0,0,5.4,0,31.4c0,26.1-15.7,47.2-31.5,47.2H648.4c-15.7,0-31.4-21.1-31.4-47.2
				c0-26,0-31.4,0-31.4L727,727"/>
		</g>
		<g>
			<path class="st2" d="M852.8,640.6c0,55-30.9,102.2-78.6,102.2c-47.7,0-78.6-47.1-78.6-102.2c0-55,15.7-86.5,78.6-86.5
				S852.8,585.6,852.8,640.6z"/>
		</g>
		<g>
			<path class="st3" d="M774.2,762.4c-56,0-98.2-52.4-98.2-121.8c0-49.4,11.2-106.1,98.2-106.1s98.2,56.7,98.2,106.1
				C872.5,710,830.2,762.4,774.2,762.4L774.2,762.4z M774.2,573.8c-45.7,0-58.9,15-58.9,66.8c0,40,20.7,82.5,58.9,82.5
				s58.9-42.5,58.9-82.5C833.2,588.8,819.9,573.8,774.2,573.8L774.2,573.8z"/>
		</g>
		<g>
			<path class="st3" d="M900,888.2H648.4c-27.7,0-51.1-30.6-51.1-66.8v-42.8l120-68.6l19.5,34.1l-100.1,57.2v20
				c0,16.1,8.6,26.8,12.1,27.5H900c3.2-0.8,11.8-11.4,11.8-27.5v-20l-100.1-57.2l19.5-34.1l120,68.5v42.8
				C951.1,857.6,927.6,888.2,900,888.2L900,888.2z"/>
		</g>
	</g>
	<g>
		<path class="st3" d="M475.5,558.1c-10.9,0-19.6-8.8-19.6-19.7V412.6c0-10.8,8.8-19.6,19.6-19.6s19.6,8.8,19.6,19.6v125.8
			C495.2,549.3,486.4,558.1,475.5,558.1L475.5,558.1z"/>
	</g>
	<g>
		<path class="st3" d="M349.8,652.4c-6,0-11.9-2.7-15.7-7.9c-6.5-8.7-4.8-21,3.9-27.5l125.8-94.3c8.7-6.5,21-4.7,27.5,3.9
			c6.5,8.7,4.8,21-3.9,27.5l-125.8,94.3C358,651.1,353.9,652.4,349.8,652.4L349.8,652.4z"/>
	</g>
	<g>
		<path class="st3" d="M601.3,652.4c-4.1,0-8.2-1.3-11.8-3.9l-125.8-94.3c-8.7-6.5-10.4-18.8-3.9-27.5c6.5-8.6,18.8-10.4,27.5-3.9
			L613.1,617c8.7,6.5,10.5,18.8,3.9,27.5C613.2,649.6,607.3,652.4,601.3,652.4L601.3,652.4z"/>
	</g>
</g>
</svg>
