<?xml version="1.0" encoding="utf-8"?>
<!-- Generator: Adobe Illustrator 25.4.1, SVG Export Plug-In . SVG Version: 6.00 Build 0)  -->
<svg version="1.1" id="prototyping" xmlns="http://www.w3.org/2000/svg" xmlns:xlink="http://www.w3.org/1999/xlink" x="0px"
	 y="0px" viewBox="0 0 1010 1010" style="enable-background:new 0 0 1010 1010;" xml:space="preserve">
<style type="text/css">
	.st0{fill:#ECF0F1;}
	.st1{fill:#022531;}
	.st2{fill:#F90000;}
	.st3{fill:#038DC2;}
	.st4{fill:#BDC3C7;}
	.st5{fill:#FFCA70;}
	.st6{fill:#FFFFFF;}
</style>
<g id="prototyping-prototyping">
	<g>
		<g>
			<rect x="313.3" y="28.3" class="st0" width="676.7" height="961.6"/>
		</g>
		<g>
			<path class="st1" d="M1010,1010H293.2V8.3H1010V1010L1010,1010z M333.3,969.9h636.6V48.4H333.3V969.9L333.3,969.9z"/>
		</g>
	</g>
	<g>
		<g>
			<polygon class="st2" points="105.7,194.4 28.3,117.1 117.1,28.3 194.4,105.7 			"/>
		</g>
		<g>
			<polygon class="st3" points="612.9,701.6 105.7,194.4 194.4,105.7 701.7,612.9 			"/>
		</g>
		<g>
			<polygon class="st4" points="611.1,703.4 703.4,611.1 749.6,749.6 			"/>
		</g>
		<g>
			<path class="st1" d="M781.2,781.3l-175.6-58.6L0,117.1L117.1,0l605.6,605.6L781.2,781.3L781.2,781.3z M627.3,687.6l90.6,30.2
				l-30.2-90.6L117.1,56.7l-60.4,60.4L627.3,687.6L627.3,687.6z"/>
		</g>
		<g>
			<polygon class="st1" points="630.5,712.3 602.2,684 686.2,600 714.6,628.3 			"/>
		</g>
	</g>
	<g>
		<g>
			<g>
				<polygon class="st5" points="749.6,990 28.3,990 28.3,268.7 				"/>
				<path class="st1" d="M797.9,1010H8.3V220.4L797.9,1010L797.9,1010z M48.4,969.9h652.8L48.4,317.1V969.9L48.4,969.9z"/>
			</g>
			<g>
				<polygon class="st6" points="183.2,835 183.2,634.7 383.6,835 				"/>
				<path class="st1" d="M383.6,855.1H183.2c-11.1,0-20-9-20-20V634.7c0-8.1,4.9-15.4,12.4-18.5s16.1-1.4,21.8,4.3l200.3,200.3
					c5.7,5.7,7.5,14.3,4.3,21.8C399,850.2,391.7,855.1,383.6,855.1L383.6,855.1z M203.3,815h131.9L203.3,683.1V815L203.3,815z"/>
			</g>
		</g>
		<g>
			<polygon class="st1" points="108.5,536 8.3,536 8.3,495.9 108.5,495.9 			"/>
		</g>
		<g>
			<polygon class="st1" points="108.5,698.4 8.3,698.4 8.3,658.3 108.5,658.3 			"/>
		</g>
		<g>
			<polygon class="st1" points="108.5,860.8 8.3,860.8 8.3,820.7 108.5,820.7 			"/>
		</g>
	</g>
</g>
</svg>
