<?xml version="1.0" encoding="utf-8"?>
<!-- Generator: Adobe Illustrator 25.4.1, SVG Export Plug-In . SVG Version: 6.00 Build 0)  -->
<svg version="1.1" id="Camada_1" xmlns="http://www.w3.org/2000/svg" xmlns:xlink="http://www.w3.org/1999/xlink" x="0px" y="0px"
	 viewBox="0 0 1010 1010" style="enable-background:new 0 0 1010 1010;" xml:space="preserve">
<style type="text/css">
	.st0{fill:none;}
	.st1{fill:#FFFFFF;}
	.st2{fill:#ECF0F1;}
	.st3{fill:#F90000;}
	.st4{fill:#F7F9F9;}
</style>
<g id="prototyping">
	<g>
		<g>
			<g>
				<polygon class="st0" points="734.3,990 19.8,990 19.8,268.7 				"/>
				<path class="st1" d="M782.1,1010H0V220.4L782.1,1010L782.1,1010z M39.7,969.9h646.6L39.7,317.1V969.9L39.7,969.9z"/>
			</g>
			<g>
				<polygon class="st0" points="173.2,835 173.2,634.7 371.7,835 				"/>
				<path class="st1" d="M371.7,855.1H173.2c-11,0-19.8-9-19.8-20V634.7c0-8.1,4.9-15.4,12.3-18.5c7.4-3.1,15.9-1.4,21.6,4.3
					l198.4,200.3c5.6,5.7,7.4,14.3,4.3,21.8C387,850.2,379.8,855.1,371.7,855.1L371.7,855.1z M193.1,815h130.6L193.1,683.1V815
					L193.1,815z"/>
			</g>
		</g>
		<g>
			<polygon class="st1" points="99.2,536 0,536 0,495.9 99.2,495.9 			"/>
		</g>
		<g>
			<polygon class="st1" points="99.2,698.4 0,698.4 0,658.3 99.2,658.3 			"/>
		</g>
		<g>
			<polygon class="st1" points="99.2,860.8 0,860.8 0,820.7 99.2,820.7 			"/>
		</g>
	</g>
	<polygon class="st2" points="416.7,58.3 416.7,250.8 639.6,473.7 685.4,611.2 548,565.3 416.7,434 416.7,602.6 793.9,979.8 
		1008.8,979.8 1008.8,58.3 	"/>
	<g>
		<g>
			<polygon class="st3" points="140.2,143 76,80 149.7,7.7 213.7,70.8 			"/>
		</g>
		<g>
			<polygon class="st4" points="560.7,556.1 140.2,143 213.7,70.8 634.4,483.9 			"/>
		</g>
		<g>
			<polygon class="st1" points="559.2,552.4 631.3,482.4 667.4,587.5 			"/>
		</g>
	</g>
</g>
</svg>
