<svg xmlns="http://www.w3.org/2000/svg" viewBox="0 0 268.13 266.85"><defs><style>.cls-1{fill:#fff;}</style></defs><g id="Camada_2" data-name="Camada 2"><g id="Camada_1-2" data-name="Camada 1"><path class="cls-1" d="M134.12,265.21c-264.74-73.1-2.2-208-45.9-263.71l-12.69.14c43.69,55.72-218.85,190.61,45.89,263.71Z"/><path class="cls-1" d="M134.52,263.76c-22.39-6.19-44.68-13.58-65.41-24.16-13.74-7-27.14-15.54-37.53-27.07-7.38-8.2-12.85-17.95-14.95-28.81-1.9-9.86-.84-20.14,1.87-29.84,3-10.69,7.84-20.75,13.35-30.35A352.5,352.5,0,0,1,51.52,93.58c6.8-9.5,13.83-18.84,20.55-28.39,5.84-8.29,11.56-16.77,16.08-25.86,3.55-7.12,6.62-15,6.61-23A26,26,0,0,0,92.66,6a23.67,23.67,0,0,0-2.54-4.46A2.78,2.78,0,0,0,87.57,0L83.3.05,75.53.14A1.52,1.52,0,0,0,74.46,2.7l.26.34c.13.18.27.37.39.55.26.37.5.74.74,1.12A24.35,24.35,0,0,1,77.06,7l.27.58c0,.07.11.27,0,0,0,.11.09.21.13.32.16.4.31.79.44,1.2a19.65,19.65,0,0,1,.66,2.39c.09.4.17.8.23,1.2l.09.57c-.06-.41,0,.31,0,.41.09.86.14,1.73.15,2.6s0,1.69-.09,2.54q0,.65-.12,1.29c0,.1-.1.78,0,.41,0,.25-.07.5-.11.75-1.35,8.44-5.09,15.9-9.31,23.24A306.82,306.82,0,0,1,51.58,71.1c-7,9.62-14.08,19.13-20.84,28.89a268.73,268.73,0,0,0-18.51,30.12c-5,9.75-9.18,20.09-11.12,30.91a62.23,62.23,0,0,0,1.74,30.54c3.75,11.32,11,21.07,19.73,29.09,12.47,11.49,27.61,19.88,43,26.78A334.7,334.7,0,0,0,97.23,259.6q9.28,3.07,18.69,5.76c2,.56,4.08,1.5,6.15,1.48l4.27,0,7.78-.08a1.5,1.5,0,0,0,0-3l-8,.09c-1.41,0-2.84.11-4.25,0a6,6,0,0,1-1.43-.33q-2.53-.7-5.06-1.44c-11.88-3.43-23.64-7.28-35.16-11.76-17-6.64-34-14.69-48.55-25.93-9.78-7.55-18.54-16.82-23.75-28.15A56.38,56.38,0,0,1,3.3,166.82c1-10.29,4.58-20.59,9-30a225.68,225.68,0,0,1,17.61-30.26c6.65-9.88,13.74-19.46,20.76-29.09,6.45-8.84,12.91-17.71,18.65-27C74,42.82,78.4,34.78,80.69,26.14c1.86-7,2-14.46-1.22-21.07A26.16,26.16,0,0,0,76.59.58L75.53,3.14,88.22,3l-1.06-.44c-.2-.25.16.21.22.29l.36.5c.26.37.5.74.74,1.12a23.27,23.27,0,0,1,1.2,2.19c.08.16.15.32.22.48s.19.43.13.28c.16.38.3.76.44,1.14a23.06,23.06,0,0,1,.68,2.33c.09.37.17.75.24,1.13,0,.19.07.38.1.57s.08.56.05.35c.11.8.17,1.6.2,2.4a31.54,31.54,0,0,1-.25,5.05c0-.15,0,.1-.06.35s-.05.37-.09.56c-.07.47-.16.93-.25,1.4-.19.9-.4,1.8-.65,2.7a54.85,54.85,0,0,1-1.78,5.44,92.38,92.38,0,0,1-5.43,11.42A261.89,261.89,0,0,1,66.77,67.5c-6.56,9.16-13.33,18.18-19.85,27.38a327.29,327.29,0,0,0-18.57,28.73c-5.24,9.33-9.86,19.14-12.74,29.47a69.53,69.53,0,0,0-2.2,29.52,61.18,61.18,0,0,0,13,28.5c8.78,11,20.49,19.51,32.62,26.48,17.8,10.23,37.2,17.61,56.72,23.78q8.92,2.82,17.93,5.3A1.51,1.51,0,0,0,134.52,263.76Z"/><path class="cls-1" d="M111,259.6C227.05,166-6.36,106.13,154.56,15.46-13.66,87.14,156.8,225.54,111,259.6Z"/><path class="cls-1" d="M112.06,260.66c9.45-7.63,18.32-16.33,24.83-26.67a59.37,59.37,0,0,0,9.1-25.32,60.79,60.79,0,0,0-2.63-24,118.13,118.13,0,0,0-10.24-23c-4.25-7.63-9-15-13.64-22.36s-9.16-14.62-13.07-22.3A85,85,0,0,1,98.28,94.7a48.25,48.25,0,0,1,.81-22.62c2.54-8.85,7.72-16.78,13.9-23.65,9-10,20.08-18.11,31.47-25.24q5.35-3.35,10.85-6.43c1.73-1,.21-3.33-1.51-2.59-14.21,6.06-28,13.37-40.24,22.84a102,102,0,0,0-24,25.65A79.39,79.39,0,0,0,78.64,90.25a96.24,96.24,0,0,0-.85,28.7A156.45,156.45,0,0,0,84,147.56c2.89,9.35,6.41,18.49,10.16,27.51,3.61,8.69,7.46,17.27,11.17,25.91,3.19,7.43,6.32,14.92,8.78,22.63a86.68,86.68,0,0,1,2.63,10,41.16,41.16,0,0,1,.89,8.75c0,.69,0,1.37-.09,2.06,0,.33-.06.66-.09,1l-.06.43c0-.13,0,0,0,.27a24.87,24.87,0,0,1-.89,3.72c-.1.29-.21.58-.32.87a3.74,3.74,0,0,1-.28.66c-.27.56-.54,1.11-.85,1.65a14.88,14.88,0,0,1-2.06,2.82c-.43.46-.87.91-1.34,1.33-.25.23-.5.45-.76.66l-.34.28-.26.2c-1.53,1.14,0,3.75,1.51,2.59a21.31,21.31,0,0,0,8.38-13.38c1.1-6,.18-12.28-1.27-18.18a155.06,155.06,0,0,0-7.51-21.7c-3.45-8.42-7.18-16.73-10.79-25.09-3.82-8.85-7.51-17.77-10.72-26.86a187,187,0,0,1-7.78-28.25A106,106,0,0,1,80.44,99,77.41,77.41,0,0,1,88,71.51a88.84,88.84,0,0,1,20.08-26.05C118.69,35.84,131,28.29,143.83,22c3.78-1.86,7.61-3.6,11.48-5.25l-1.51-2.59c-13,7.34-25.75,15.6-36.7,25.83-7.48,7-14.26,15.09-18.42,24.51a50.19,50.19,0,0,0-4.26,23.77,71.4,71.4,0,0,0,6.08,23.11,176.36,176.36,0,0,0,12,22.25c4.59,7.48,9.41,14.82,13.94,22.35A157.7,157.7,0,0,1,138,178.53a67.88,67.88,0,0,1,5.23,23.18A52.13,52.13,0,0,1,137.91,226c-4.82,9.95-12.17,18.46-20.25,25.91q-3.75,3.45-7.72,6.64C108.43,259.76,110.57,261.87,112.06,260.66Z"/><path class="cls-1" d="M137.79,44.25c47.41,67.55,52,153.41,2.11,221,83.12-40,65.63-177.1.59-221.21Z"/><path class="cls-1" d="M136.5,45a214.12,214.12,0,0,1,22.65,41.09,196.71,196.71,0,0,1,12.39,43.61,181.35,181.35,0,0,1,1.65,44.52A175.32,175.32,0,0,1,163.56,218a180.59,180.59,0,0,1-21.42,41.53c-1.15,1.67-2.33,3.33-3.54,5-1,1.33.85,2.64,2.05,2.06a94.51,94.51,0,0,0,38.68-34.53c9.29-14.64,14.59-31.49,16.84-48.61a162.43,162.43,0,0,0-2.24-53.59,163,163,0,0,0-18.79-49.65C166.78,66,155.86,53,142.25,43.48a3.35,3.35,0,0,0-2.33-.87l-2.13.14c-1.92.12-1.93,3.12,0,3l2.13-.14c.06,0,.42,0,.46,0s-.45-.27-.35,0,1.05.72,1.31.91c1.57,1.12,3.11,2.28,4.6,3.5a102.21,102.21,0,0,1,8.68,8,120.76,120.76,0,0,1,15.15,19.23,156.68,156.68,0,0,1,19.91,47.46,162.68,162.68,0,0,1,4.18,52.53c-1.47,16.75-5.88,33.42-14,48.18A92,92,0,0,1,144.92,261q-2.83,1.61-5.78,3l2.05,2.05a186.43,186.43,0,0,0,23.16-41.65,177.74,177.74,0,0,0,11.22-44.22,181.67,181.67,0,0,0-.27-45.3,196,196,0,0,0-11.21-44.41,214,214,0,0,0-21.62-42q-1.65-2.51-3.38-5C138,41.92,135.39,43.42,136.5,45Z"/><path class="cls-1" d="M134,265.21c264.73-73.1,2.19-208,45.89-263.71l12.7.14c-43.7,55.72,218.84,190.61-45.9,263.71Z"/><path class="cls-1" d="M134.38,266.66c21.69-6,43.24-13.16,63.45-23.13,13.75-6.77,27.18-15,38-25.94,7.82-7.88,14.15-17.33,17.29-28.06a63,63,0,0,0,1-29.35c-1.94-10.31-5.9-20.17-10.62-29.49A255.1,255.1,0,0,0,226,101.75c-6.45-9.41-13.26-18.56-20-27.78-6.16-8.46-12.29-17-17.75-25.91-4.47-7.32-8.51-14.73-10.67-22.92a31,31,0,0,1-1.22-9.92c0-.39,0-.78.07-1.17l.06-.59c0-.11.1-.8,0-.41.12-.78.26-1.56.45-2.33s.42-1.52.68-2.27a15.39,15.39,0,0,1,.85-2,23.56,23.56,0,0,1,1.17-2.08c.21-.34.44-.68.67-1l.33-.45c.06-.08.45-.6.25-.34L179.88,3l12.7.14L191.52.58a26.36,26.36,0,0,0-5.2,20c1.09,8.44,4.8,16.39,8.9,23.76A275.73,275.73,0,0,0,212.6,70.76c6.87,9.54,13.93,19,20.68,28.59a289.61,289.61,0,0,1,18.8,30c5.09,9.58,9.4,19.7,11.61,30.37a60.31,60.31,0,0,1-.89,29.69c-3.35,11.05-10.32,20.62-18.7,28.5-12.1,11.36-26.93,19.62-41.95,26.44a323.5,323.5,0,0,1-31.26,12.11q-9.22,3.07-18.59,5.76c-1.68.49-3.42.88-5.08,1.44a2.84,2.84,0,0,1-1.19.2l-4.27,0-7.77-.08a1.5,1.5,0,0,0,0,3l8.15.09c1.37,0,2.75.07,4.12,0,2.18,0,4.52-1.08,6.61-1.68,12-3.45,23.85-7.31,35.48-11.82,17.19-6.67,34.24-14.69,49-25.89,10.12-7.69,19.33-17.06,24.93-28.6A59,59,0,0,0,268,168.49c-.82-10.75-4.13-21.11-8.5-30.92a212,212,0,0,0-17.27-30.49c-6.6-10-13.67-19.56-20.72-29.2-6.52-8.92-13.07-17.85-19-27.21C197.64,43,193.11,35,190.61,26.45A33,33,0,0,1,189.05,16a23,23,0,0,1,2.07-9.16,23.27,23.27,0,0,1,1.2-2.19c.21-.34.44-.68.67-1,.12-.17.23-.33.36-.5l.29-.39A1.52,1.52,0,0,0,192.58.14l-8-.09c-1.41,0-2.83-.06-4.25,0-1.21,0-1.76.76-2.42,1.69a24,24,0,0,0-4,9.48c-1.42,7.55.54,15.27,3.42,22.24,3.72,9,8.92,17.31,14.35,25.36,6.38,9.45,13.21,18.59,19.92,27.8,7,9.67,14,19.41,20.32,29.57,6,9.64,11.49,19.69,15.38,30.36,3.56,9.76,5.74,19.91,5.11,30.29a56.61,56.61,0,0,1-10.47,29.08c-8.07,11.48-19.56,20.27-31.48,27.44-18.07,10.85-38,18.51-58,24.89q-9.33,3-18.77,5.56A1.5,1.5,0,0,0,134.38,266.66Z"/></g></g></svg>